<svg xmlns="http://www.w3.org/2000/svg" fill-rule="evenodd" clip-rule="evenodd" image-rendering="optimizeQuality" shape-rendering="geometricPrecision" text-rendering="geometricPrecision" viewBox="0 0 210 297"><circle cx="107" cy="123" r="61" fill="#f63" stroke="#000" stroke-width="10"/><path fill="#1f1a17" d="M83 152h17c2 0 4 0 7-2 6-2 11-7 14-20l1 1v17l2 2c2 2 5 1 6-2v-17l11-18 2-5c-1-2-2-3-4-3s-3 2-5 4l-8 14-6-11c-1-7-4-13-11-17l-7-1H77l-1 2-1 4v46c0 2 0 4 2 5l6 1zm4-48v38h10c3 0 6 0 8-4 6-8 7-25-1-32-3-2-4-2-7-2H87z"/></svg>