<svg xmlns="http://www.w3.org/2000/svg" width="150" height="150" fill-rule="evenodd" clip-rule="evenodd" image-rendering="optimizeQuality" shape-rendering="geometricPrecision" text-rendering="geometricPrecision"><circle cx="75" cy="75" r="69" fill="#da251d" stroke="#1f1a17" stroke-width="8"/><path fill="#1f1a17" d="M51 108h19l8-2c7-3 13-8 16-23l1 1v20l3 2c2 1 5 1 7-2V84l12-20 2-6c-1-2-2-3-4-3-3 0-4 2-5 4l-10 16-7-12c-1-8-4-14-12-19-3-2-4-2-8-2H51l-6 1-1 1-1 5v52c0 2 0 4 2 5 2 2 4 2 6 2zm5-55v43h11c4 0 7 0 10-4 7-9 7-28-2-36-3-3-4-3-8-3H56z"/></svg>